<svg width="30" height="30" viewBox="0 0 30 30" fill="none" xmlns="http://www.w3.org/2000/svg">
<rect width="30" height="30" rx="4" fill="white"/>
<rect width="30" height="30" rx="4" fill="#278733" fill-opacity="0.1"/>
<path d="M24 11C23.9996 10.6493 23.9071 10.3048 23.7315 10.0012C23.556 9.69751 23.3037 9.44536 23 9.26999L16 5.26999C15.696 5.09446 15.3511 5.00204 15 5.00204C14.6489 5.00204 14.304 5.09446 14 5.26999L7 9.26999C6.69626 9.44536 6.44398 9.69751 6.26846 10.0012C6.09294 10.3048 6.00036 10.6493 6 11V19C6.00036 19.3507 6.09294 19.6952 6.26846 19.9988C6.44398 20.3025 6.69626 20.5546 7 20.73L14 24.73C14.304 24.9055 14.6489 24.9979 15 24.9979C15.3511 24.9979 15.696 24.9055 16 24.73L23 20.73C23.3037 20.5546 23.556 20.3025 23.7315 19.9988C23.9071 19.6952 23.9996 19.3507 24 19V11Z" stroke="#278733" stroke-width="2" stroke-linecap="round" stroke-linejoin="round"/>
<path d="M6.3 10L15 15L23.7 10" stroke="#278733" stroke-width="2" stroke-linecap="round" stroke-linejoin="round"/>
<path d="M15 25V15" stroke="#278733" stroke-width="2" stroke-linecap="round" stroke-linejoin="round"/>
</svg>
